<svg xmlns="http://www.w3.org/2000/svg" viewBox="0 0 1200 630" width="1200" height="630">
  <defs>
    <linearGradient id="bg3" x1="0%" y1="0%" x2="100%" y2="100%">
      <stop offset="0%" style="stop-color:#050510"/><stop offset="100%" style="stop-color:#1a0d2e"/>
    </linearGradient>
    <linearGradient id="accent3" x1="0%" y1="0%" x2="100%" y2="0%">
      <stop offset="0%" style="stop-color:#a855f7"/><stop offset="100%" style="stop-color:#6366f1"/>
    </linearGradient>
    <filter id="bs3"><feDropShadow dx="0" dy="10" stdDeviation="24" flood-color="#000" flood-opacity="0.5"/></filter>
  </defs>

  <rect width="1200" height="630" fill="url(#bg3)"/>
  <circle cx="600" cy="400" r="350" fill="#a855f7" opacity="0.02"/>
  <g opacity="0.03"><pattern id="d3" width="30" height="30" patternUnits="userSpaceOnUse"><circle cx="15" cy="15" r="1" fill="#a855f7"/></pattern><rect width="1200" height="630" fill="url(#d3)"/></g>
  <rect x="0" y="0" width="1200" height="3" fill="url(#accent3)"/>

  <!-- Heading -->
  <text x="600" y="42" text-anchor="middle" font-family="'Segoe UI', Arial, sans-serif" font-size="11" fill="#c084fc" font-weight="600" letter-spacing="3">REPORTS / METRICS</text>
  <text x="600" y="74" text-anchor="middle" font-family="'Segoe UI', Arial, sans-serif" font-size="32" fill="#ffffff" font-weight="800">Campaign Analytics — Every Metric, One View</text>

  <!-- ════════ BROWSER MOCKUP ════════ -->
  <g transform="translate(60, 95)" filter="url(#bs3)">
    <rect width="1080" height="490" rx="12" fill="#1e1e2e"/>
    <rect y="0" width="1080" height="32" rx="12" fill="#2a2a3e"/>
    <rect y="22" width="1080" height="10" fill="#2a2a3e"/>
    <circle cx="18" cy="16" r="5" fill="#ff5f57"/>
    <circle cx="34" cy="16" r="5" fill="#ffbd2e"/>
    <circle cx="50" cy="16" r="5" fill="#28c840"/>
    <rect x="70" y="7" width="250" height="17" rx="4" fill="#1a1a2e"/>
    <text x="82" y="19" font-family="'Segoe UI', Arial, sans-serif" font-size="9" fill="#667788">🔒 auto.accountx.app/analytics</text>

    <!-- Content -->
    <rect x="0" y="32" width="1080" height="458" fill="#f9fafb"/>

    <!-- Mini sidebar -->
    <rect x="0" y="32" width="95" height="458" fill="#fff" stroke="#e5e7eb" stroke-width="0.5"/>
    <rect x="6" y="40" width="16" height="16" rx="3.5" fill="#111827"/>
    <text x="14" y="52" text-anchor="middle" font-size="7" fill="#fff" font-weight="800" font-family="'Segoe UI', Arial, sans-serif">RX</text>
    <!-- Active: Analytics -->
    <rect x="6" y="109" width="82" height="20" rx="5" fill="#111827"/>
    <text x="16" y="123" font-family="'Segoe UI', Arial, sans-serif" font-size="8" fill="#fff">📊 Analytics</text>
    <text x="16" y="78" font-family="'Segoe UI', Arial, sans-serif" font-size="8" fill="#9ca3af">⊞ Overview</text>
    <text x="16" y="93" font-family="'Segoe UI', Arial, sans-serif" font-size="8" fill="#9ca3af">📣 Campaigns</text>
    <text x="16" y="145" font-family="'Segoe UI', Arial, sans-serif" font-size="8" fill="#9ca3af">⚡ Automation</text>
    <text x="16" y="160" font-family="'Segoe UI', Arial, sans-serif" font-size="8" fill="#9ca3af">🤖 AI Agent</text>

    <!-- ─── Header ─── -->
    <text x="110" y="53" font-family="'Segoe UI', Arial, sans-serif" font-size="7" fill="#9ca3af" letter-spacing="1" font-weight="600">REPORTS / METRICS</text>
    <text x="110" y="70" font-family="'Segoe UI', Arial, sans-serif" font-size="14" fill="#111827" font-weight="800">Campaign Analytics</text>
    <!-- Date range -->
    <rect x="790" y="40" width="130" height="22" rx="5" fill="#fff" stroke="#e5e7eb" stroke-width="0.8"/>
    <text x="800" y="55" font-family="'Segoe UI', Arial, sans-serif" font-size="8" fill="#374151">02/28 – 03/07/2026</text>
    <rect x="928" y="40" width="55" height="22" rx="5" fill="#111827"/>
    <text x="955" y="55" text-anchor="middle" font-family="'Segoe UI', Arial, sans-serif" font-size="8" fill="#fff" font-weight="600">Update</text>
    <rect x="990" y="40" width="75" height="22" rx="5" fill="#fff" stroke="#e5e7eb" stroke-width="0.8"/>
    <text x="1028" y="55" text-anchor="middle" font-family="'Segoe UI', Arial, sans-serif" font-size="8" fill="#374151">Export CSV</text>

    <!-- ─── Message Statistics ─── -->
    <rect x="110" y="80" width="955" height="72" rx="8" fill="#fff" stroke="#e5e7eb" stroke-width="0.8"/>
    <text x="122" y="97" font-family="'Segoe UI', Arial, sans-serif" font-size="10" fill="#111827" font-weight="700">📊 Message Statistics</text>

    <g transform="translate(122, 106)">
      <!-- Total -->
      <rect width="140" height="38" rx="5" fill="#f9fafb" stroke="#e5e7eb" stroke-width="0.5"/>
      <text x="70" y="14" text-anchor="middle" font-family="'Segoe UI', Arial, sans-serif" font-size="7" fill="#9ca3af" font-weight="600">TOTAL</text>
      <text x="70" y="32" text-anchor="middle" font-family="'Segoe UI', Arial, sans-serif" font-size="17" fill="#111827" font-weight="800">325</text>
      <!-- Delivered -->
      <rect x="150" width="140" height="38" rx="5" fill="#f9fafb" stroke="#e5e7eb" stroke-width="0.5"/>
      <text x="220" y="14" text-anchor="middle" font-family="'Segoe UI', Arial, sans-serif" font-size="7" fill="#9ca3af" font-weight="600">DELIVERED</text>
      <text x="220" y="32" text-anchor="middle" font-family="'Segoe UI', Arial, sans-serif" font-size="17" fill="#111827" font-weight="800">32</text>
      <!-- Failed -->
      <rect x="300" width="140" height="38" rx="5" fill="#f9fafb" stroke="#e5e7eb" stroke-width="0.5"/>
      <text x="370" y="14" text-anchor="middle" font-family="'Segoe UI', Arial, sans-serif" font-size="7" fill="#9ca3af" font-weight="600">FAILED</text>
      <text x="370" y="32" text-anchor="middle" font-family="'Segoe UI', Arial, sans-serif" font-size="17" fill="#ef4444" font-weight="800">0</text>
      <!-- Auto-Replies -->
      <rect x="450" width="140" height="38" rx="5" fill="#f9fafb" stroke="#e5e7eb" stroke-width="0.5"/>
      <text x="520" y="14" text-anchor="middle" font-family="'Segoe UI', Arial, sans-serif" font-size="7" fill="#9ca3af" font-weight="600">AUTO-REPLIES</text>
      <text x="520" y="32" text-anchor="middle" font-family="'Segoe UI', Arial, sans-serif" font-size="17" fill="#111827" font-weight="800">49</text>
      <!-- Follow-Ups -->
      <rect x="600" width="140" height="38" rx="5" fill="#f9fafb" stroke="#e5e7eb" stroke-width="0.5"/>
      <text x="670" y="14" text-anchor="middle" font-family="'Segoe UI', Arial, sans-serif" font-size="7" fill="#9ca3af" font-weight="600">FOLLOW-UPS</text>
      <text x="670" y="32" text-anchor="middle" font-family="'Segoe UI', Arial, sans-serif" font-size="17" fill="#111827" font-weight="800">2</text>
      <!-- Auto-Statuses -->
      <rect x="750" width="140" height="38" rx="5" fill="#f9fafb" stroke="#e5e7eb" stroke-width="0.5"/>
      <text x="820" y="14" text-anchor="middle" font-family="'Segoe UI', Arial, sans-serif" font-size="7" fill="#9ca3af" font-weight="600">AUTO-STATUSES</text>
      <text x="820" y="32" text-anchor="middle" font-family="'Segoe UI', Arial, sans-serif" font-size="17" fill="#111827" font-weight="800">54</text>
    </g>

    <!-- ─── Daily Message Volume Chart ─── -->
    <rect x="110" y="162" width="955" height="140" rx="8" fill="#fff" stroke="#e5e7eb" stroke-width="0.8"/>
    <text x="122" y="182" font-family="'Segoe UI', Arial, sans-serif" font-size="10" fill="#111827" font-weight="700">📈 Daily Message Volume</text>
    <!-- Chart bars -->
    <g transform="translate(140, 192)">
      <!-- Day labels -->
      <text x="55" y="96" text-anchor="middle" font-size="7" fill="#9ca3af" font-family="'Segoe UI', Arial, sans-serif">02-28</text>
      <text x="180" y="96" text-anchor="middle" font-size="7" fill="#9ca3af" font-family="'Segoe UI', Arial, sans-serif">03-01</text>
      <text x="305" y="96" text-anchor="middle" font-size="7" fill="#9ca3af" font-family="'Segoe UI', Arial, sans-serif">03-02</text>
      <text x="430" y="96" text-anchor="middle" font-size="7" fill="#9ca3af" font-family="'Segoe UI', Arial, sans-serif">03-03</text>
      <text x="555" y="96" text-anchor="middle" font-size="7" fill="#9ca3af" font-family="'Segoe UI', Arial, sans-serif">03-04</text>
      <text x="680" y="96" text-anchor="middle" font-size="7" fill="#9ca3af" font-family="'Segoe UI', Arial, sans-serif">03-05</text>
      <text x="805" y="96" text-anchor="middle" font-size="7" fill="#9ca3af" font-family="'Segoe UI', Arial, sans-serif">03-06</text>

      <!-- Bars (sent=dark, received=gray) -->
      <rect x="20" y="55" width="45" height="30" rx="2" fill="#374151"/>
      <rect x="67" y="60" width="45" height="25" rx="2" fill="#6b7280"/>
      <rect x="145" y="40" width="45" height="45" rx="2" fill="#374151"/>
      <rect x="192" y="50" width="45" height="35" rx="2" fill="#6b7280"/>
      <rect x="270" y="60" width="45" height="25" rx="2" fill="#374151"/>
      <rect x="395" y="30" width="45" height="55" rx="2" fill="#374151"/>
      <rect x="442" y="45" width="45" height="40" rx="2" fill="#6b7280"/>
      <rect x="520" y="15" width="45" height="70" rx="2" fill="#374151"/>
      <rect x="567" y="35" width="45" height="50" rx="2" fill="#6b7280"/>
      <rect x="645" y="5" width="45" height="80" rx="2" fill="#374151"/>
      <rect x="692" y="25" width="45" height="60" rx="2" fill="#6b7280"/>
      <rect x="770" y="8" width="45" height="77" rx="2" fill="#374151"/>
      <rect x="817" y="28" width="45" height="57" rx="2" fill="#6b7280"/>
    </g>
    <!-- Legend -->
    <rect x="485" y="290" width="8" height="8" rx="2" fill="#374151"/><text x="497" y="297" font-size="7" fill="#9ca3af" font-family="'Segoe UI', Arial, sans-serif">Sent</text>
    <rect x="525" y="290" width="8" height="8" rx="2" fill="#6b7280"/><text x="537" y="297" font-size="7" fill="#9ca3af" font-family="'Segoe UI', Arial, sans-serif">Received</text>
    <rect x="575" y="290" width="8" height="8" rx="2" fill="#ef4444"/><text x="587" y="297" font-size="7" fill="#9ca3af" font-family="'Segoe UI', Arial, sans-serif">Failed</text>

    <!-- ─── Bottom Row: Activity by Source + Revenue ─── -->
    <!-- Activity by Source -->
    <rect x="110" y="310" width="465" height="170" rx="8" fill="#fff" stroke="#e5e7eb" stroke-width="0.8"/>
    <text x="122" y="330" font-family="'Segoe UI', Arial, sans-serif" font-size="10" fill="#111827" font-weight="700">⟳ Activity by Source</text>

    <g transform="translate(122, 340)" font-family="'Segoe UI', Arial, sans-serif">
      <text x="0" y="12" font-size="8" fill="#374151">alerts_service</text>
      <rect x="110" y="2" width="300" height="14" rx="3" fill="#374151"/>
      <text x="120" y="13" font-size="7" fill="#fff" font-weight="600">114</text>

      <text x="0" y="32" font-size="8" fill="#374151">status_autopilot</text>
      <rect x="110" y="22" width="210" height="14" rx="3" fill="#4b5563"/>
      <text x="120" y="33" font-size="7" fill="#fff" font-weight="600">54</text>

      <text x="0" y="52" font-size="8" fill="#374151">outbound_autopilot</text>
      <rect x="110" y="42" width="205" height="14" rx="3" fill="#4b5563"/>
      <text x="120" y="53" font-size="7" fill="#fff" font-weight="600">53</text>

      <text x="0" y="72" font-size="8" fill="#374151">auto_reply</text>
      <rect x="110" y="62" width="160" height="14" rx="3" fill="#6b7280"/>
      <text x="120" y="73" font-size="7" fill="#fff" font-weight="600">49</text>

      <text x="0" y="92" font-size="8" fill="#374151">human_agent</text>
      <rect x="110" y="82" width="120" height="14" rx="3" fill="#6b7280"/>
      <text x="120" y="93" font-size="7" fill="#fff" font-weight="600">18</text>

      <text x="0" y="112" font-size="8" fill="#374151">scheduled</text>
      <rect x="110" y="102" width="90" height="14" rx="3" fill="#9ca3af"/>
      <text x="120" y="113" font-size="7" fill="#fff" font-weight="600">14</text>

      <text x="0" y="132" font-size="8" fill="#374151">routing_autopilot</text>
      <rect x="110" y="122" width="60" height="14" rx="3" fill="#9ca3af"/>
      <text x="120" y="133" font-size="7" fill="#fff" font-weight="600">9</text>
    </g>

    <!-- Revenue Overview -->
    <rect x="585" y="310" width="480" height="80" rx="8" fill="#fff" stroke="#e5e7eb" stroke-width="0.8"/>
    <text x="597" y="330" font-family="'Segoe UI', Arial, sans-serif" font-size="10" fill="#111827" font-weight="700">💰 Revenue Overview</text>

    <g transform="translate(597, 340)">
      <rect width="88" height="38" rx="5" fill="#f9fafb" stroke="#e5e7eb" stroke-width="0.5"/>
      <text x="44" y="14" text-anchor="middle" font-size="7" fill="#9ca3af" font-weight="600" font-family="'Segoe UI', Arial, sans-serif">TOTAL REVENUE</text>
      <text x="44" y="30" text-anchor="middle" font-size="12" fill="#111827" font-weight="800" font-family="'Segoe UI', Arial, sans-serif">USD 0</text>

      <rect x="96" width="88" height="38" rx="5" fill="#f9fafb" stroke="#e5e7eb" stroke-width="0.5"/>
      <text x="140" y="14" text-anchor="middle" font-size="7" fill="#9ca3af" font-weight="600" font-family="'Segoe UI', Arial, sans-serif">THIS WEEK</text>
      <text x="140" y="30" text-anchor="middle" font-size="12" fill="#111827" font-weight="800" font-family="'Segoe UI', Arial, sans-serif">USD 0</text>

      <rect x="192" width="88" height="38" rx="5" fill="#f0fdf4" stroke="#25D366" stroke-width="0.8"/>
      <text x="236" y="14" text-anchor="middle" font-size="7" fill="#9ca3af" font-weight="600" font-family="'Segoe UI', Arial, sans-serif">THIS MONTH</text>
      <text x="236" y="30" text-anchor="middle" font-size="12" fill="#111827" font-weight="800" font-family="'Segoe UI', Arial, sans-serif">USD 0</text>

      <rect x="288" width="88" height="38" rx="5" fill="#f9fafb" stroke="#e5e7eb" stroke-width="0.5"/>
      <text x="332" y="14" text-anchor="middle" font-size="7" fill="#9ca3af" font-weight="600" font-family="'Segoe UI', Arial, sans-serif">AVG DEAL</text>
      <text x="332" y="30" text-anchor="middle" font-size="12" fill="#111827" font-weight="800" font-family="'Segoe UI', Arial, sans-serif">USD 0</text>

      <rect x="384" width="72" height="38" rx="5" fill="#f9fafb" stroke="#e5e7eb" stroke-width="0.5"/>
      <text x="420" y="14" text-anchor="middle" font-size="7" fill="#9ca3af" font-weight="600" font-family="'Segoe UI', Arial, sans-serif">ROI</text>
      <text x="420" y="30" text-anchor="middle" font-size="12" fill="#111827" font-weight="800" font-family="'Segoe UI', Arial, sans-serif">N/A</text>
    </g>

    <!-- Lead Funnel mini -->
    <rect x="585" y="398" width="230" height="82" rx="8" fill="#fff" stroke="#e5e7eb" stroke-width="0.8"/>
    <text x="597" y="418" font-family="'Segoe UI', Arial, sans-serif" font-size="10" fill="#111827" font-weight="700">🔻 Lead Funnel</text>
    <g transform="translate(597, 428)">
      <text x="0" y="10" font-size="8" fill="#374151" font-family="'Segoe UI', Arial, sans-serif">New</text>
      <rect x="55" y="1" width="155" height="13" rx="3" fill="#111827"/>
      <text x="62" y="11" font-size="7" fill="#fff" font-weight="600" font-family="'Segoe UI', Arial, sans-serif">8</text>
      <text x="0" y="30" font-size="8" fill="#374151" font-family="'Segoe UI', Arial, sans-serif">Qualified</text>
      <rect x="55" y="21" width="5" height="13" rx="3" fill="#6b7280"/>
      <text x="62" y="31" font-size="7" fill="#374151" font-weight="600" font-family="'Segoe UI', Arial, sans-serif">0</text>
      <text x="0" y="50" font-size="8" fill="#374151" font-family="'Segoe UI', Arial, sans-serif">Closed</text>
      <rect x="55" y="41" width="5" height="13" rx="3" fill="#6b7280"/>
      <text x="62" y="51" font-size="7" fill="#374151" font-weight="600" font-family="'Segoe UI', Arial, sans-serif">0</text>
    </g>

    <!-- Lead Temperature mini -->
    <rect x="825" y="398" width="240" height="82" rx="8" fill="#fff" stroke="#e5e7eb" stroke-width="0.8"/>
    <text x="837" y="418" font-family="'Segoe UI', Arial, sans-serif" font-size="10" fill="#111827" font-weight="700">🌡 Lead Temperature</text>
    <g transform="translate(837, 428)">
      <text x="0" y="10" font-size="9" fill="#ef4444" font-family="'Segoe UI', Arial, sans-serif">🔥</text>
      <rect x="25" y="1" width="5" height="13" rx="3" fill="#e5e7eb"/>
      <text x="195" y="11" font-size="8" fill="#9ca3af" font-family="'Segoe UI', Arial, sans-serif">0</text>
      <text x="0" y="30" font-size="9" fill="#f59e0b" font-family="'Segoe UI', Arial, sans-serif">🟡</text>
      <rect x="25" y="21" width="30" height="13" rx="3" fill="#f59e0b"/>
      <text x="32" y="31" font-size="7" fill="#fff" font-weight="600" font-family="'Segoe UI', Arial, sans-serif">1</text>
      <text x="0" y="50" font-size="9" fill="#3b82f6" font-family="'Segoe UI', Arial, sans-serif">🔵</text>
      <rect x="25" y="41" width="140" height="13" rx="3" fill="#3b82f6"/>
      <text x="32" y="51" font-size="7" fill="#fff" font-weight="600" font-family="'Segoe UI', Arial, sans-serif">7</text>
    </g>
  </g>

  <rect x="0" y="627" width="1200" height="3" fill="url(#accent3)"/>
</svg>